<?xml version="1.0" encoding="UTF-8" standalone="no"?>
<!DOCTYPE svg PUBLIC "-//W3C//DTD SVG 1.0//EN" "http://www.w3.org/TR/2001/PR-SVG-20010719/DTD/svg10.dtd">
<svg width="63cm" height="41cm" viewBox="95 30 1253 807" xmlns="http://www.w3.org/2000/svg" xmlns:xlink="http://www.w3.org/1999/xlink">
  <g id="Background">
    <ellipse style="fill: #000000; fill-opacity: 1; stroke: none" cx="106" cy="98" rx="10" ry="10"/>
    <g>
      <rect style="fill: #ffffff; fill-opacity: 1; stroke-opacity: 1; stroke-width: 2; stroke: #0000ff" x="286" y="80" width="80" height="36" rx="20" ry="20"/>
      <text font-size="12.8" style="fill: #000000; fill-opacity: 1; stroke: none;text-anchor:middle;font-family:sans-serif;font-style:normal;font-weight:normal" x="326" y="101.881">
        <tspan x="326" y="101.881">i = 0</tspan>
      </text>
    </g>
    <g>
      <line style="fill: none; stroke-opacity: 1; stroke-width: 2; stroke: #000000" x1="116.984" y1="98" x2="275.269" y2="98"/>
      <polygon style="fill: #000000; fill-opacity: 1; stroke-opacity: 1; stroke-width: 2; stroke: #000000" fill-rule="evenodd" points="282.769,98 272.769,103 275.269,98 272.769,93 "/>
    </g>
    <g>
      <polyline style="fill: none; stroke-opacity: 1; stroke-width: 2; stroke: #0000ff" points="326,80 326,31 728.076,31 728.076,68.2639 "/>
      <polygon style="fill: #0000ff; fill-opacity: 1; stroke-opacity: 1; stroke-width: 2; stroke: #0000ff" fill-rule="evenodd" points="728.076,75.7639 723.076,65.7639 728.076,68.2639 733.076,65.7639 "/>
    </g>
    <text font-size="12.8" style="fill: #000000; fill-opacity: 1; stroke: none;text-anchor:start;font-family:sans-serif;font-style:normal;font-weight:normal" x="164.3" y="69.481">
      <tspan x="164.3" y="69.481"></tspan>
    </text>
    <g>
      <rect style="fill: #ffffff; fill-opacity: 1; stroke-opacity: 1; stroke-width: 2; stroke: #ff0000" x="952.3" y="373.093" width="80" height="36" rx="20" ry="20"/>
      <text font-size="12.8" style="fill: #000000; fill-opacity: 1; stroke: none;text-anchor:middle;font-family:sans-serif;font-style:normal;font-weight:normal" x="992.3" y="394.974">
        <tspan x="992.3" y="394.974">j = j + 1</tspan>
      </text>
    </g>
    <g>
      <polyline style="fill: none; stroke-opacity: 1; stroke-width: 2; stroke: #ff0000" points="952.3,391.093 850.188,391.093 850.188,391.093 757.812,391.093 "/>
      <polygon style="fill: #ff0000; fill-opacity: 1; stroke-opacity: 1; stroke-width: 2; stroke: #ff0000" fill-rule="evenodd" points="750.312,391.093 760.312,386.093 757.812,391.093 760.312,396.093 "/>
    </g>
    <g>
      <polyline style="fill: none; stroke-opacity: 1; stroke-width: 2; stroke: #ff0000" points="708.076,568 508.125,568 508.125,671.464 "/>
      <polygon style="fill: #ff0000; fill-opacity: 1; stroke-opacity: 1; stroke-width: 2; stroke: #ff0000" fill-rule="evenodd" points="508.125,678.964 503.125,668.964 508.125,671.464 513.125,668.964 "/>
    </g>
    <g>
      <polyline style="fill: none; stroke-opacity: 1; stroke-width: 2; stroke: #ff0000" points="508.125,717.2 508.125,794.2 698.34,794.2 "/>
      <polygon style="fill: #ff0000; fill-opacity: 1; stroke-opacity: 1; stroke-width: 2; stroke: #ff0000" fill-rule="evenodd" points="705.84,794.2 695.84,799.2 698.34,794.2 695.84,789.2 "/>
    </g>
    <g>
      <polyline style="fill: none; stroke-opacity: 1; stroke-width: 2; stroke: #ff0000" points="748.076,568 995,568 995,794.2 757.812,794.2 "/>
      <polygon style="fill: #ff0000; fill-opacity: 1; stroke-opacity: 1; stroke-width: 2; stroke: #ff0000" fill-rule="evenodd" points="750.312,794.2 760.312,789.2 757.812,794.2 760.312,799.2 "/>
    </g>
    <g>
      <polyline style="fill: none; stroke-opacity: 1; stroke-width: 2; stroke: #ff0000" points="728.076,814.2 728.076,835.2 1183.4,835.2 1183.4,391.093 1042.04,391.093 "/>
      <polygon style="fill: #ff0000; fill-opacity: 1; stroke-opacity: 1; stroke-width: 2; stroke: #ff0000" fill-rule="evenodd" points="1034.54,391.093 1044.54,386.093 1042.04,391.093 1044.54,396.093 "/>
    </g>
    <g>
      <ellipse style="fill: #ffffff; fill-opacity: 1; stroke-opacity: 1; stroke-width: 2; stroke: #000000" cx="1331.97" cy="98" rx="15" ry="15"/>
      <ellipse style="fill: #000000; fill-opacity: 1; stroke: none" cx="1331.97" cy="98" rx="10" ry="10"/>
    </g>
    <polygon style="fill: #ffffff; fill-opacity: 1; stroke-opacity: 1; stroke-width: 2; stroke: #000000" fill-rule="evenodd" points="708.076,98 728.076,78 748.076,98 728.076,118 "/>
    <g>
      <rect style="fill: #ffffff; fill-opacity: 1; stroke-opacity: 1; stroke-width: 2; stroke: #008000" x="688.076" y="222.6" width="80" height="36" rx="20" ry="20"/>
      <text font-size="12.8" style="fill: #000000; fill-opacity: 1; stroke: none;text-anchor:middle;font-family:sans-serif;font-style:normal;font-weight:normal" x="728.076" y="244.481">
        <tspan x="728.076" y="244.481">j = 0</tspan>
      </text>
    </g>
    <polygon style="fill: #ffffff; fill-opacity: 1; stroke-opacity: 1; stroke-width: 2; stroke: #000000" fill-rule="evenodd" points="708.076,391.093 728.076,371.093 748.076,391.093 728.076,411.093 "/>
    <g>
      <line style="fill: none; stroke-opacity: 1; stroke-width: 2; stroke: #008000" x1="728.076" y1="258.6" x2="728.076" y2="361.357"/>
      <polygon style="fill: #008000; fill-opacity: 1; stroke-opacity: 1; stroke-width: 2; stroke: #008000" fill-rule="evenodd" points="728.076,368.857 723.076,358.857 728.076,361.357 733.076,358.857 "/>
    </g>
    <polygon style="fill: #ffffff; fill-opacity: 1; stroke-opacity: 1; stroke-width: 2; stroke: #000000" fill-rule="evenodd" points="708.076,568 728.076,548 748.076,568 728.076,588 "/>
    <g>
      <line style="fill: none; stroke-opacity: 1; stroke-width: 2; stroke: #ff0000" x1="728.076" y1="411.093" x2="728.076" y2="538.264"/>
      <polygon style="fill: #ff0000; fill-opacity: 1; stroke-opacity: 1; stroke-width: 2; stroke: #ff0000" fill-rule="evenodd" points="728.076,545.764 723.076,535.764 728.076,538.264 733.076,535.764 "/>
    </g>
    <polygon style="fill: #ffffff; fill-opacity: 1; stroke-opacity: 1; stroke-width: 2; stroke: #000000" fill-rule="evenodd" points="708.076,794.2 728.076,774.2 748.076,794.2 728.076,814.2 "/>
    <text font-size="12.8" style="fill: #000000; fill-opacity: 1; stroke: none;text-anchor:start;font-family:sans-serif;font-style:normal;font-weight:normal" x="728.076" y="99.898">
      <tspan x="728.076" y="99.898"></tspan>
    </text>
    <g>
      <rect style="fill: #ffffff; fill-opacity: 1; stroke-opacity: 1; stroke-width: 2; stroke: #0000ff" x="467.148" y="80" width="80" height="36" rx="20" ry="20"/>
      <text font-size="12.8" style="fill: #000000; fill-opacity: 1; stroke: none;text-anchor:middle;font-family:sans-serif;font-style:normal;font-weight:normal" x="507.148" y="101.881">
        <tspan x="507.148" y="101.881">i = i + 1</tspan>
      </text>
    </g>
    <text font-size="12.8" style="fill: #000000; fill-opacity: 1; stroke: none;text-anchor:start;font-family:sans-serif;font-style:normal;font-weight:normal" x="507.148" y="98">
      <tspan x="507.148" y="98"></tspan>
      <tspan x="507.148" y="114"></tspan>
      <tspan x="507.148" y="130"></tspan>
    </text>
    <text font-size="12.8" style="fill: #000000; fill-opacity: 1; stroke: none;text-anchor:start;font-family:sans-serif;font-style:normal;font-weight:normal" x="507.148" y="98">
      <tspan x="507.148" y="98"></tspan>
    </text>
    <g>
      <rect style="fill: #ffffff; fill-opacity: 1; stroke-opacity: 1; stroke-width: 2; stroke: #ff0000" x="438" y="681.2" width="140.25" height="36" rx="20" ry="20"/>
      <text font-size="12.8" style="fill: #000000; fill-opacity: 1; stroke: none;text-anchor:middle;font-family:sans-serif;font-style:normal;font-weight:normal" x="508.125" y="703.081">
        <tspan x="508.125" y="703.081">Swap A[j+1] &amp; A[j]</tspan>
      </text>
    </g>
    <g>
      <line style="fill: none; stroke-opacity: 1; stroke-width: 2; stroke: #000000" x1="748.076" y1="98" x2="1307.24" y2="98"/>
      <polygon style="fill: #000000; fill-opacity: 1; stroke-opacity: 1; stroke-width: 2; stroke: #000000" fill-rule="evenodd" points="1314.74,98 1304.74,103 1307.24,98 1304.74,93 "/>
      <text font-size="12.8" style="fill: #000000; fill-opacity: 1; stroke: none;text-anchor:start;font-family:sans-serif;font-style:normal;font-weight:normal" x="1001.31" y="77.6146">
        <tspan x="1001.31" y="77.6146">i &gt;= n - 1</tspan>
      </text>
    </g>
    <g>
      <polyline style="fill: none; stroke-opacity: 1; stroke-width: 2; stroke: #008000" points="708.076,391 507.148,391 507.148,125.736 "/>
      <polygon style="fill: #008000; fill-opacity: 1; stroke-opacity: 1; stroke-width: 2; stroke: #008000" fill-rule="evenodd" points="507.148,118.236 512.148,128.236 507.148,125.736 502.148,128.236 "/>
      <line style="fill: none; stroke-opacity: 1; stroke-width: 2; stroke: #008000" x1="728.076" y1="118" x2="728.076" y2="212.864"/>
      <polygon style="fill: #008000; fill-opacity: 1; stroke-opacity: 1; stroke-width: 2; stroke: #008000" fill-rule="evenodd" points="728.076,220.364 723.076,210.364 728.076,212.864 733.076,210.364 "/>
      <text font-size="12.8" style="fill: #000000; fill-opacity: 1; stroke: none;text-anchor:start;font-family:sans-serif;font-style:normal;font-weight:normal" x="754.734" y="164.035">
        <tspan x="754.734" y="164.035">i &lt; n - 1</tspan>
      </text>
    </g>
    <text font-size="12.8" style="fill: #000000; fill-opacity: 1; stroke: none;text-anchor:start;font-family:sans-serif;font-style:normal;font-weight:normal" x="566.846" y="365.076">
      <tspan x="566.846" y="365.076">j &gt; n - 2 - i</tspan>
    </text>
    <text font-size="12.8" style="fill: #000000; fill-opacity: 1; stroke: none;text-anchor:start;font-family:sans-serif;font-style:normal;font-weight:normal" x="741.85" y="473.784">
      <tspan x="741.85" y="473.784">j &lt;= n - 2 - i</tspan>
    </text>
    <text font-size="12.8" style="fill: #000000; fill-opacity: 1; stroke: none;text-anchor:start;font-family:sans-serif;font-style:normal;font-weight:normal" x="548.594" y="546.056">
      <tspan x="548.594" y="546.056">A[j+1] &lt; A[j]</tspan>
    </text>
    <text font-size="12.8" style="fill: #000000; fill-opacity: 1; stroke: none;text-anchor:start;font-family:sans-serif;font-style:normal;font-weight:normal" x="828.816" y="547.276">
      <tspan x="828.816" y="547.276">A[j+1] &gt;= A[j]</tspan>
    </text>
    <g>
      <line style="fill: none; stroke-opacity: 1; stroke-width: 2; stroke: #0000ff" x1="547.148" y1="98" x2="698.34" y2="98"/>
      <polygon style="fill: #0000ff; fill-opacity: 1; stroke-opacity: 1; stroke-width: 2; stroke: #0000ff" fill-rule="evenodd" points="705.84,98 695.84,103 698.34,98 695.84,93 "/>
    </g>
  </g>
</svg>
